<svg width="241" height="16" viewBox="0 0 241 16" fill="none" xmlns="http://www.w3.org/2000/svg">
<path d="M0 14.9577V14.3996L1.18323 14.1317L6.8761 0.111625H7.34492L13.0155 14.1094L14.355 14.3996V14.9577H9.59975V14.3996L11.4974 14.1094L9.62208 9.3765H3.97385L2.16552 14.1094L4.15245 14.3996V14.9577H0ZM4.2864 8.59512H9.30953L6.76448 2.1432L4.2864 8.59512Z" fill="black"/>
<path d="M16.7657 14.9577V14.3996L18.5517 14.0201V1.1609L16.7657 0.781374V0.223249H21.9674C23.6046 0.223249 25.0037 0.513474 26.1646 1.09392C27.3255 1.67437 28.2036 2.47063 28.7989 3.4827C29.4091 4.49477 29.7142 5.64078 29.7142 6.92075C29.7142 8.5728 29.3868 10.0016 28.7319 11.2071C28.0919 12.3978 27.1841 13.3206 26.0083 13.9754C24.8325 14.6303 23.4335 14.9577 21.8112 14.9577H16.7657ZM22.1237 1.00463H19.8912V14.1764H22.2353C23.4558 14.1764 24.5125 13.901 25.4055 13.3503C26.3134 12.7848 27.0129 12.0109 27.504 11.0286C28.0101 10.0463 28.2631 8.90767 28.2631 7.61282C28.2631 6.28821 28.025 5.12731 27.5487 4.13013C27.0724 3.13294 26.3729 2.36645 25.4501 1.83065C24.5423 1.27997 23.4335 1.00463 22.1237 1.00463Z" fill="black"/>
<path d="M32.9479 14.9577V14.3996L34.7339 14.0201V1.1609L32.9479 0.781374V0.223249H37.3682C38.931 0.223249 40.1588 0.550683 41.0518 1.20555C41.9597 1.84553 42.4137 2.73109 42.4137 3.86222C42.4137 4.75522 42.1234 5.51427 41.543 6.13937C40.9774 6.76447 40.2258 7.22586 39.2882 7.52352L43.5969 14.1094L45.0703 14.3996V14.9577H42.4806L38.0156 7.97003H36.0734V13.9978L37.7477 14.3996V14.9577H32.9479ZM37.5245 1.00463H36.0734V7.18865H37.6584C38.5961 7.18865 39.37 6.90587 39.9802 6.3403C40.6053 5.75985 40.9179 5.03057 40.9179 4.15245C40.9179 3.18503 40.6128 2.41854 40.0026 1.85297C39.3923 1.28741 38.5663 1.00463 37.5245 1.00463Z" fill="black"/>
<path d="M46.7344 14.9577V14.3996L48.4758 14.0201V1.1609L46.7344 0.781374V0.223249H51.5566V0.781374L49.8153 1.1609V14.0201L51.5566 14.3996V14.9577H46.7344Z" fill="black"/>
<path d="M54.0893 14.9577V14.3996L55.2725 14.1317L60.9654 0.111625H61.4342L67.1048 14.1094L68.4443 14.3996V14.9577H63.689V14.3996L65.5867 14.1094L63.7114 9.3765H58.0631L56.2548 14.1094L58.2417 14.3996V14.9577H54.0893ZM58.3757 8.59512H63.3988L60.8538 2.1432L58.3757 8.59512Z" fill="black"/>
<path d="M70.855 14.9577V14.3996L72.5964 14.0201V1.1609L70.855 0.781374V0.223249H73.7796L82.8659 12.5466V1.1609L80.9459 0.781374V0.223249H85.4556V0.781374L83.7142 1.1609V15.0694H83.2231L73.4894 2.09855V13.9531L75.5209 14.3996V14.9577H70.855Z" fill="black"/>
<path d="M95.8407 15.181C94.7691 15.181 93.757 14.995 92.8045 14.6229C91.852 14.2508 91.0111 13.7299 90.2818 13.0601C89.5674 12.3904 89.0018 11.6164 88.5851 10.7383C88.1683 9.84532 87.96 8.87791 87.96 7.83607C87.96 6.69006 88.1981 5.64078 88.6744 4.68825C89.1506 3.73572 89.7981 2.90969 90.6166 2.21017C91.4352 1.51066 92.3654 0.967416 93.4073 0.580449C94.4491 0.193483 95.5356 0 96.6667 0C97.4704 0 98.1551 0.0446495 98.7206 0.133949C99.2862 0.223249 99.7922 0.349757 100.239 0.513474C100.685 0.677191 101.124 0.863232 101.556 1.0716L101.891 5.15707H101.467L98.8769 1.45112C98.3411 1.19811 97.6714 1.0716 96.8677 1.0716C96.064 1.0716 95.3198 1.35438 94.6351 1.91995C93.9654 2.47063 93.4222 3.25945 93.0054 4.2864C92.6036 5.29847 92.4026 6.50402 92.4026 7.90305C92.4026 9.13837 92.5812 10.2174 92.9384 11.1402C93.3105 12.0481 93.8017 12.755 94.4119 13.2611C95.037 13.7522 95.7291 13.9978 96.4881 13.9978C96.7858 13.9978 97.1132 13.9754 97.4704 13.9308V9.62208L95.4835 8.46117V8.10397H103.476V8.46117L101.712 9.62208V13.3057C101.251 13.6927 100.685 14.0275 100.015 14.3103C99.3457 14.5782 98.6388 14.794 97.8946 14.9577C97.1653 15.1066 96.4807 15.181 95.8407 15.181ZM99.9708 13.2387L99.7476 13.3503C99.822 13.3206 99.8964 13.2834 99.9708 13.2387Z" fill="black"/>
<path d="M113.417 15.181C112.286 15.181 111.244 14.995 110.292 14.6229C109.339 14.2359 108.506 13.7075 107.791 13.0378C107.077 12.3532 106.519 11.5495 106.117 10.6267C105.73 9.70393 105.536 8.69187 105.536 7.5905C105.536 6.48913 105.73 5.47707 106.117 4.5543C106.519 3.63153 107.077 2.83527 107.791 2.16552C108.506 1.48089 109.339 0.952533 110.292 0.580449C111.244 0.193483 112.286 0 113.417 0C114.548 0 115.59 0.193483 116.543 0.580449C117.51 0.952533 118.351 1.48089 119.065 2.16552C119.78 2.83527 120.33 3.63153 120.717 4.5543C121.119 5.47707 121.32 6.48913 121.32 7.5905C121.32 8.69187 121.119 9.70393 120.717 10.6267C120.33 11.5495 119.78 12.3532 119.065 13.0378C118.351 13.7075 117.51 14.2359 116.543 14.6229C115.59 14.995 114.548 15.181 113.417 15.181ZM113.707 13.9978C114.332 13.9978 114.876 13.7596 115.337 13.2834C115.813 12.8071 116.185 12.1448 116.453 11.2964C116.721 10.4332 116.855 9.41371 116.855 8.23792C116.855 6.80912 116.691 5.56637 116.364 4.50965C116.037 3.45293 115.598 2.63435 115.047 2.0539C114.496 1.45857 113.871 1.1609 113.172 1.1609C112.561 1.1609 112.018 1.39903 111.542 1.8753C111.066 2.33668 110.686 2.99899 110.403 3.86222C110.135 4.71057 110.001 5.72264 110.001 6.89842C110.001 8.32722 110.165 9.57742 110.493 10.649C110.835 11.7057 111.281 12.5318 111.832 13.1271C112.398 13.7075 113.023 13.9978 113.707 13.9978Z" fill="black"/>
<path d="M123.002 14.9577V14.6005L124.989 13.6629V1.5181L123.002 0.580449V0.223249H131.441V0.580449L129.231 1.5181V13.7299H133.807L135.817 9.17557H136.174V14.9577H123.002Z" fill="black"/>
<path d="M137.963 14.9577V14.6005L139.95 13.6629V1.5181L137.963 0.580449V0.223249H146.268C148.114 0.223249 149.677 0.513474 150.957 1.09392C152.251 1.67437 153.234 2.47063 153.903 3.4827C154.588 4.49477 154.93 5.64078 154.93 6.92075C154.93 8.08165 154.715 9.15325 154.283 10.1355C153.851 11.1178 153.234 11.9662 152.43 12.6806C151.641 13.395 150.711 13.9531 149.639 14.355C148.568 14.7568 147.392 14.9577 146.112 14.9577H137.963ZM145.085 1.45112H144.192V13.7299H145.42C147.087 13.7299 148.359 13.1792 149.238 12.0778C150.116 10.9616 150.555 9.47324 150.555 7.61282C150.555 5.72264 150.101 4.22687 149.193 3.1255C148.3 2.00925 146.931 1.45112 145.085 1.45112Z" fill="black"/>
<path d="M156.5 14.9577V14.6005L158.487 13.6629V1.5181L156.5 0.580449V0.223249H161.345L170.118 9.42115V1.5181L167.372 0.580449V0.223249H173.623V0.580449L171.681 1.5181V15.0694H169.917L160.05 4.84452V13.6629L162.796 14.6005V14.9577H156.5Z" fill="black"/>
<path d="M175.189 14.9577V14.6005L177.176 13.6629V1.5181L175.189 0.580449V0.223249H188.183V4.1078H187.825L185.995 1.45112H181.418V6.74215H184.633L185.972 4.77755H186.33V9.88997H185.972L184.633 7.97003H181.418V13.7299H186.464L188.451 10.0686H188.808V14.9577H175.189Z" fill="black"/>
<path d="M191.045 14.9577V14.6005L193.032 13.6629V1.5181L191.045 0.580449V0.223249H199.908C201.47 0.223249 202.698 0.550683 203.591 1.20555C204.499 1.84553 204.953 2.73109 204.953 3.86222C204.953 4.68081 204.685 5.36544 204.149 5.91612C203.614 6.45192 202.899 6.89098 202.006 7.2333L206.092 13.6406L207.788 14.6005V14.9577H201.895L197.898 8.08165H197.273V13.6406L198.948 14.6005V14.9577H191.045ZM197.809 1.45112H197.273V7.07702H197.943C198.836 7.07702 199.528 6.82401 200.019 6.31798C200.525 5.79706 200.778 5.11242 200.778 4.26407C200.778 3.35619 200.533 2.66412 200.042 2.18785C199.55 1.6967 198.806 1.45112 197.809 1.45112Z" fill="black"/>
<path d="M210.888 15.0227C210.672 15.0227 210.485 14.9447 210.329 14.7887C210.173 14.6327 210.095 14.4464 210.095 14.2297C210.095 14.013 210.173 13.8267 210.329 13.6707C210.485 13.5147 210.672 13.4367 210.888 13.4367C211.105 13.4367 211.291 13.5147 211.447 13.6707C211.603 13.8267 211.681 14.013 211.681 14.2297C211.681 14.4464 211.603 14.6327 211.447 14.7887C211.291 14.9447 211.105 15.0227 210.888 15.0227Z" fill="black"/>
<path d="M213.358 14.9577V14.7497L214.398 14.2297V7.10569L213.358 6.58569V6.37769H217.167C218.121 6.37769 218.935 6.54669 219.611 6.88469C220.287 7.22269 220.799 7.68635 221.145 8.27569C221.501 8.86502 221.678 9.53235 221.678 10.2777C221.678 10.9537 221.561 11.5777 221.327 12.1497C221.102 12.7217 220.781 13.2157 220.365 13.6317C219.949 14.0477 219.46 14.3727 218.896 14.6067C218.342 14.8407 217.735 14.9577 217.076 14.9577H213.358ZM216.868 7.09269H215.568V14.2427H217.063C217.757 14.2427 218.355 14.0997 218.857 13.8137C219.369 13.519 219.759 13.1074 220.027 12.5787C220.305 12.0414 220.443 11.4087 220.443 10.6807C220.443 9.96135 220.305 9.33302 220.027 8.79569C219.75 8.24969 219.343 7.82935 218.805 7.53469C218.277 7.24002 217.631 7.09269 216.868 7.09269Z" fill="black"/>
<path d="M223.438 14.9577V14.7497L224.478 14.2297V7.10569L223.438 6.58569V6.37769H229.795V8.61369H229.587L228.781 7.09269H225.648V10.1737H227.858L228.508 9.09469H228.716V11.9417H228.508L227.858 10.8887H225.648V14.2427H229.145L229.951 12.5917H230.159V14.9577H223.438Z" fill="black"/>
<path d="M235.575 15.0227L232.299 7.04069L231.402 6.58569V6.37769H234.652V6.58569L233.534 7.06669V7.13169L235.965 13.0857H236.03L238.448 7.07969V7.02769L237.382 6.58569V6.37769H240.112V6.58569L239.371 6.97569L236.03 15.0227H235.575Z" fill="black"/>
</svg>
