<svg width="488" height="33" viewBox="0 0 488 33" fill="none" xmlns="http://www.w3.org/2000/svg">
<path d="M0.551025 32V30.825L3.04203 30.261L15.027 0.74501H16.014L27.952 30.214L30.772 30.825V32H20.761V30.825L24.756 30.214L20.808 20.25H8.91703L5.11003 30.214L9.29303 30.825V32H0.551025ZM9.57503 18.605H20.15L14.792 5.02201L9.57503 18.605Z" fill="black"/>
<path d="M35.8473 32V30.825L39.6073 30.026V2.95401L35.8473 2.15501V0.980011H46.7983C50.245 0.980011 53.1903 1.59101 55.6343 2.81301C58.0783 4.03501 59.927 5.71135 61.1803 7.84201C62.465 9.97268 63.1073 12.3853 63.1073 15.08C63.1073 18.558 62.418 21.566 61.0393 24.104C59.692 26.6107 57.7806 28.5533 55.3053 29.932C52.83 31.3107 49.8846 32 46.4693 32H35.8473ZM47.1273 2.62501H42.4273V30.355H47.3623C49.9316 30.355 52.1563 29.7753 54.0363 28.616C55.9476 27.4253 57.4203 25.796 58.4543 23.728C59.5196 21.66 60.0523 19.263 60.0523 16.537C60.0523 13.7483 59.551 11.3043 58.5483 9.20501C57.5456 7.10568 56.073 5.49201 54.1303 4.36401C52.219 3.20468 49.8846 2.62501 47.1273 2.62501Z" fill="black"/>
<path d="M69.9149 32V30.825L73.6749 30.026V2.95401L69.9149 2.15501V0.980011H79.2209C82.5109 0.980011 85.096 1.66934 86.976 3.04801C88.8873 4.39534 89.8429 6.25968 89.8429 8.64101C89.8429 10.521 89.2319 12.119 88.0099 13.435C86.8193 14.751 85.2369 15.7223 83.2629 16.349L92.3339 30.214L95.436 30.825V32H89.9839L80.5839 17.289H76.4949V29.979L80.02 30.825V32H69.9149ZM79.5499 2.62501H76.4949V15.644H79.8319C81.8059 15.644 83.4353 15.0487 84.7199 13.858C86.0359 12.636 86.6939 11.1007 86.6939 9.25201C86.6939 7.21534 86.0516 5.60168 84.7669 4.41101C83.4823 3.22034 81.7433 2.62501 79.5499 2.62501Z" fill="black"/>
<path d="M98.9393 32V30.825L102.605 30.026V2.95401L98.9393 2.15501V0.980011H109.091V2.15501L105.425 2.95401V30.026L109.091 30.825V32H98.9393Z" fill="black"/>
<path d="M114.423 32V30.825L116.914 30.261L128.899 0.74501H129.886L141.824 30.214L144.644 30.825V32H134.633V30.825L138.628 30.214L134.68 20.25H122.789L118.982 30.214L123.165 30.825V32H114.423ZM123.447 18.605H134.022L128.664 5.02201L123.447 18.605Z" fill="black"/>
<path d="M149.719 32V30.825L153.385 30.026V2.95401L149.719 2.15501V0.980011H155.876L175.005 26.924V2.95401L170.963 2.15501V0.980011H180.457V2.15501L176.791 2.95401V32.235H175.757L155.265 4.92801V29.885L159.542 30.825V32H149.719Z" fill="black"/>
<path d="M202.321 32.47C200.065 32.47 197.934 32.0783 195.929 31.295C193.924 30.5117 192.153 29.415 190.618 28.005C189.114 26.595 187.923 24.9657 187.046 23.117C186.169 21.237 185.73 19.2003 185.73 17.007C185.73 14.5943 186.231 12.3853 187.234 10.38C188.237 8.37468 189.6 6.63568 191.323 5.16301C193.046 3.69034 195.005 2.54668 197.198 1.73201C199.391 0.917344 201.679 0.51001 204.06 0.51001C205.752 0.51001 207.193 0.60401 208.384 0.792009C209.575 0.980009 210.64 1.24634 211.58 1.59101C212.52 1.93568 213.444 2.32734 214.353 2.76601L215.058 11.367H214.165L208.713 3.56501C207.585 3.03234 206.175 2.76601 204.483 2.76601C202.791 2.76601 201.224 3.36134 199.783 4.55201C198.373 5.71134 197.229 7.37201 196.352 9.53401C195.506 11.6647 195.083 14.2027 195.083 17.148C195.083 19.7487 195.459 22.0203 196.211 23.963C196.994 25.8743 198.028 27.3627 199.313 28.428C200.629 29.462 202.086 29.979 203.684 29.979C204.311 29.979 205 29.932 205.752 29.838V20.767L201.569 18.323V17.571H218.395V18.323L214.682 20.767V28.522C213.711 29.3367 212.52 30.0417 211.11 30.637C209.7 31.201 208.212 31.6553 206.645 32C205.11 32.3133 203.668 32.47 202.321 32.47ZM211.016 28.381L210.546 28.616C210.703 28.5533 210.859 28.475 211.016 28.381Z" fill="black"/>
<path d="M239.324 32.47C236.943 32.47 234.749 32.0783 232.744 31.295C230.739 30.4803 228.984 29.368 227.48 27.958C225.976 26.5167 224.801 24.8247 223.955 22.882C223.14 20.9393 222.733 18.8087 222.733 16.49C222.733 14.1713 223.14 12.0407 223.955 10.098C224.801 8.15535 225.976 6.47901 227.48 5.06901C228.984 3.62768 230.739 2.51534 232.744 1.73201C234.749 0.917344 236.943 0.51001 239.324 0.51001C241.705 0.51001 243.899 0.917344 245.904 1.73201C247.941 2.51534 249.711 3.62768 251.215 5.06901C252.719 6.47901 253.878 8.15535 254.693 10.098C255.539 12.0407 255.962 14.1713 255.962 16.49C255.962 18.8087 255.539 20.9393 254.693 22.882C253.878 24.8247 252.719 26.5167 251.215 27.958C249.711 29.368 247.941 30.4803 245.904 31.295C243.899 32.0783 241.705 32.47 239.324 32.47ZM239.935 29.979C241.251 29.979 242.395 29.4777 243.366 28.475C244.369 27.4723 245.152 26.078 245.716 24.292C246.28 22.4747 246.562 20.3283 246.562 17.853C246.562 14.845 246.217 12.2287 245.528 10.004C244.839 7.77934 243.914 6.05601 242.755 4.83401C241.596 3.58068 240.28 2.95401 238.807 2.95401C237.522 2.95401 236.379 3.45534 235.376 4.45801C234.373 5.42934 233.574 6.82368 232.979 8.64101C232.415 10.427 232.133 12.5577 232.133 15.033C232.133 18.041 232.478 20.673 233.167 22.929C233.888 25.1537 234.828 26.8927 235.987 28.146C237.178 29.368 238.494 29.979 239.935 29.979Z" fill="black"/>
<path d="M259.503 32V31.248L263.686 29.274V3.70601L259.503 1.73201V0.980011H277.269V1.73201L272.616 3.70601V29.415H282.251L286.481 19.827H287.233V32H259.503Z" fill="black"/>
<path d="M291 32V31.248L295.183 29.274V3.70601L291 1.73201V0.980011H308.484C312.37 0.980011 315.66 1.59101 318.354 2.81301C321.08 4.03501 323.148 5.71135 324.558 7.84201C326 9.97268 326.72 12.3853 326.72 15.08C326.72 17.524 326.266 19.78 325.357 21.848C324.449 23.916 323.148 25.702 321.456 27.206C319.796 28.71 317.837 29.885 315.581 30.731C313.325 31.577 310.85 32 308.155 32H291ZM305.993 3.56501H304.113V29.415H306.698C310.208 29.415 312.887 28.2557 314.735 25.937C316.584 23.587 317.508 20.4537 317.508 16.537C317.508 12.5577 316.553 9.40868 314.641 7.09001C312.761 4.74001 309.879 3.56501 305.993 3.56501Z" fill="black"/>
<path d="M330.025 32V31.248L334.208 29.274V3.70601L330.025 1.73201V0.980011H340.224L358.695 20.344V3.70601L352.914 1.73201V0.980011H366.074V1.73201L361.985 3.70601V32.235H358.272L337.498 10.709V29.274L343.279 31.248V32H330.025Z" fill="black"/>
<path d="M369.371 32V31.248L373.554 29.274V3.70601L369.371 1.73201V0.980011H396.725V9.15801H395.973L392.119 3.56501H382.484V14.704H389.252L392.072 10.568H392.824V21.331H392.072L389.252 17.289H382.484V29.415H393.106L397.289 21.707H398.041V32H369.371Z" fill="black"/>
<path d="M402.75 32V31.248L406.933 29.274V3.70601L402.75 1.73201V0.980011H421.409C424.699 0.980011 427.284 1.66934 429.164 3.04801C431.076 4.39534 432.031 6.25968 432.031 8.64101C432.031 10.3643 431.467 11.8057 430.339 12.965C429.211 14.093 427.707 15.0173 425.827 15.738L434.428 29.227L438 31.248V32H425.592L417.179 17.524H415.863V29.227L419.388 31.248V32H402.75ZM416.991 3.56501H415.863V15.409H417.273C419.153 15.409 420.61 14.8763 421.644 13.811C422.71 12.7143 423.242 11.273 423.242 9.48701C423.242 7.57568 422.725 6.11868 421.691 5.11601C420.657 4.08201 419.091 3.56501 416.991 3.56501Z" fill="black"/>
<path d="M442.918 32.1C442.585 32.1 442.298 31.98 442.058 31.74C441.818 31.5 441.698 31.2134 441.698 30.88C441.698 30.5467 441.818 30.2601 442.058 30.0201C442.298 29.7801 442.585 29.66 442.918 29.66C443.251 29.66 443.538 29.7801 443.778 30.0201C444.018 30.2601 444.138 30.5467 444.138 30.88C444.138 31.2134 444.018 31.5 443.778 31.74C443.538 31.98 443.251 32.1 442.918 32.1Z" fill="black"/>
<path d="M446.718 32V31.68L448.318 30.88V19.92L446.718 19.12V18.8H452.578C454.045 18.8 455.298 19.06 456.338 19.58C457.378 20.1 458.165 20.8134 458.698 21.72C459.245 22.6267 459.518 23.6534 459.518 24.8C459.518 25.84 459.338 26.8 458.978 27.68C458.631 28.56 458.138 29.32 457.498 29.96C456.858 30.6 456.105 31.1 455.238 31.46C454.385 31.82 453.451 32 452.438 32H446.718ZM452.118 19.9H450.118V30.9H452.418C453.485 30.9 454.405 30.68 455.178 30.24C455.965 29.7867 456.565 29.1534 456.978 28.34C457.405 27.5134 457.618 26.54 457.618 25.42C457.618 24.3134 457.405 23.3467 456.978 22.52C456.551 21.68 455.925 21.0334 455.098 20.58C454.285 20.1267 453.291 19.9 452.118 19.9Z" fill="black"/>
<path d="M462.226 32V31.68L463.826 30.88V19.92L462.226 19.12V18.8H472.006V22.24H471.686L470.446 19.9H465.626V24.64H469.026L470.026 22.98H470.346V27.3601H470.026L469.026 25.74H465.626V30.9H471.006L472.246 28.3601H472.566V32H462.226Z" fill="black"/>
<path d="M480.897 32.1L475.857 19.82L474.477 19.12V18.8H479.477V19.12L477.757 19.86V19.96L481.497 29.12H481.597L485.317 19.88V19.8L483.677 19.12V18.8H487.877V19.12L486.737 19.72L481.597 32.1H480.897Z" fill="black"/>
</svg>
